<svg width="24" height="24" viewBox="0 0 24 24" fill="none" xmlns="http://www.w3.org/2000/svg">
<rect width="24" height="24" fill="#393939"/>
<g id="*6&#236;&#155;&#148; UT">
<path d="M-5257 -6699C-5257 -6700.1 -5256.1 -6701 -5255 -6701H9570C9571.1 -6701 9572 -6700.1 9572 -6699V11458C9572 11459.1 9571.1 11460 9570 11460H-5255C-5256.1 11460 -5257 11459.1 -5257 11458V-6699Z" fill="#444444"/>
<path d="M-5255 -6701V-6700H9570V-6701V-6702H-5255V-6701ZM9572 -6699H9571V11458H9572H9573V-6699H9572ZM9570 11460V11459H-5255V11460V11461H9570V11460ZM-5257 11458H-5256V-6699H-5257H-5258V11458H-5257ZM-5255 11460V11459C-5255.55 11459 -5256 11458.6 -5256 11458H-5257H-5258C-5258 11459.7 -5256.66 11461 -5255 11461V11460ZM9572 11458H9571C9571 11458.6 9570.55 11459 9570 11459V11460V11461C9571.66 11461 9573 11459.7 9573 11458H9572ZM9570 -6701V-6700C9570.55 -6700 9571 -6699.55 9571 -6699H9572H9573C9573 -6700.66 9571.66 -6702 9570 -6702V-6701ZM-5255 -6701V-6702C-5256.66 -6702 -5258 -6700.66 -5258 -6699H-5257H-5256C-5256 -6699.55 -5255.55 -6700 -5255 -6700V-6701Z" fill="white" fill-opacity="0.1"/>
<g id="&#235;&#130;&#152;&#236;&#157;&#152; &#236;&#131;&#129;&#237;&#146;&#136; &#237;&#152;&#132;&#237;&#153;&#169;">
<rect width="375" height="2776" transform="translate(-43 -1467)" fill="#F7F8FA"/>
<g id="Frame 2147246452">
<g id="internet">
<g id="Frame 2147245565">
<g id="Frame 2147245030">
<rect x="-26.5" y="-26.5" width="342" height="77" rx="23.5" fill="white"/>
<rect x="-26.5" y="-26.5" width="342" height="77" rx="23.5" stroke="#E7E7E7"/>
<g id="Frame 2147246191">
<g id="Frame 2147246114">
<rect x="-11" y="-11" width="46" height="46" rx="8" fill="#F3F3F3"/>
<g id="material-symbols:wifi" opacity="0.5">
<path id="Vector" d="M10.225 20.275C9.74167 19.7917 9.5 19.2 9.5 18.5C9.5 17.8 9.74167 17.2083 10.225 16.725C10.7083 16.2417 11.3 16 12 16C12.7 16 13.2917 16.2417 13.775 16.725C14.2583 17.2083 14.5 17.8 14.5 18.5C14.5 19.2 14.2583 19.7917 13.775 20.275C13.2917 20.7583 12.7 21 12 21C11.3 21 10.7083 20.7583 10.225 20.275ZM6.35 15.35L4.25 13.2C5.23333 12.2167 6.38767 11.4377 7.713 10.863C9.03833 10.2883 10.4673 10.0007 12 10C13.5327 9.99933 14.962 10.291 16.288 10.875C17.614 11.459 18.768 12.2507 19.75 13.25L17.65 15.35C16.9167 14.6167 16.0667 14.0417 15.1 13.625C14.1333 13.2083 13.1 13 12 13C10.9 13 9.86667 13.2083 8.9 13.625C7.93333 14.0417 7.08333 14.6167 6.35 15.35ZM2.1 11.1L0 9C1.53333 7.43333 3.325 6.20833 5.375 5.325C7.425 4.44167 9.63333 4 12 4C14.3667 4 16.575 4.44167 18.625 5.325C20.675 6.20833 22.4667 7.43333 24 9L21.9 11.1C20.6167 9.81667 19.1293 8.81267 17.438 8.088C15.7467 7.36333 13.934 7.00067 12 7C10.066 6.99933 8.25367 7.362 6.563 8.088C4.87233 8.814 3.38467 9.818 2.1 11.1Z" fill="#1C1C1E"/>
</g>
</g>
</g>
</g>
</g>
</g>
</g>
</g>
</g>
</svg>
