<svg overflow="visible" style="display: block;" viewBox="0 0 14 14" fill="none" xmlns="http://www.w3.org/2000/svg">
<path id="Union" d="M5 0C5.55228 -3.08176e-10 6 0.447715 6 1V13L5.99512 13.1025C5.94379 13.6067 5.51768 14 5 14C4.48232 14 4.05621 13.6067 4.00488 13.1025L4 13V1C4 0.447715 4.44772 1.43698e-08 5 0ZM9 2C9.55228 2 10 2.44772 10 3V11C10 11.5523 9.55228 12 9 12C8.44772 12 8 11.5523 8 11V3C8 2.44772 8.44772 2 9 2ZM1 3C1.55228 3 2 3.44772 2 4V10L1.99512 10.1025C1.94379 10.6067 1.51768 11 1 11C0.482323 11 0.0562144 10.6067 0.00488281 10.1025L0 10V4C0 3.44772 0.447715 3 1 3ZM13 3C13.5523 3 14 3.44772 14 4V10L13.9951 10.1025C13.9438 10.6067 13.5177 11 13 11C12.4823 11 12.0562 10.6067 12.0049 10.1025L12 10V4C12 3.44772 12.4477 3 13 3Z" fill="var(--fill-0, #191919)"/>
</svg>
