<svg preserveAspectRatio="none" width="100%" height="100%" overflow="visible" style="display: block;" viewBox="0 0 13.3584 13.3584" fill="none" xmlns="http://www.w3.org/2000/svg">
<path id="Union" d="M4.77051 0C5.29746 -1.37108e-08 5.72456 0.427157 5.72461 0.954102V12.4043C5.72461 12.9313 5.2975 13.3584 4.77051 13.3584C4.24374 13.3581 3.81641 12.9311 3.81641 12.4043V0.954102C3.81646 0.427318 4.24377 0.000261628 4.77051 0ZM8.58789 1.9082C9.11474 1.90826 9.54184 2.33548 9.54199 2.8623V10.4961C9.54188 11.023 9.11477 11.4501 8.58789 11.4502C8.06097 11.4502 7.6339 11.023 7.63379 10.4961V2.8623C7.63395 2.33545 8.061 1.9082 8.58789 1.9082ZM0.954102 2.8623C1.48096 2.8623 1.90799 3.2896 1.9082 3.81641V9.54199C1.90799 10.0688 1.48096 10.4961 0.954102 10.4961C0.427288 10.496 0.000213322 10.0688 0 9.54199V3.81641C0.000209369 3.28963 0.427286 2.86236 0.954102 2.8623ZM12.4043 2.8623C12.9312 2.8623 13.3582 3.2896 13.3584 3.81641V9.54199C13.3582 10.0688 12.9312 10.4961 12.4043 10.4961C11.8776 10.4959 11.4504 10.0687 11.4502 9.54199V3.81641C11.4504 3.28969 11.8776 2.86246 12.4043 2.8623Z" fill="var(--fill-0, #3617CE)"/>
</svg>
