<svg xmlns="http://www.w3.org/2000/svg" width="20" height="20" viewBox="0 0 20 20" fill="none" xmlns="http://www.w3.org/2000/svg"><path id="Subtract" d="M12.4893 10.5C12.3692 13.4316 11.2113 15.4548 10.3174 16.4912C10.2122 16.4963 10.1064 16.5 10 16.5C9.8939 16.5 9.78845 16.4962 9.68359 16.4912C8.78977 15.4546 7.63273 13.4312 7.5127 10.5H12.4893ZM6.51172 10.5C6.60694 13.0217 7.41204 14.962 8.26465 16.2637C5.67229 15.547 3.73201 13.2664 3.52148 10.5H6.51172ZM16.4785 10.5C16.268 13.266 14.3281 15.5457 11.7363 16.2627C12.5889 14.961 13.395 13.0215 13.4902 10.5H16.4785ZM8.26465 3.73535C7.41187 5.03707 6.60695 6.97788 6.51172 9.5H3.52051C3.73101 6.73344 5.67214 4.45192 8.26465 3.73535ZM10.3184 3.50781C11.2122 4.54431 12.3692 6.56831 12.4893 9.5H7.5127C7.63269 6.56876 8.78887 4.54446 9.68262 3.50781C9.78778 3.50276 9.89359 3.5 10 3.5C10.1067 3.5 10.2129 3.50273 10.3184 3.50781ZM11.7363 3.73633C14.3283 4.45325 16.269 6.73385 16.4795 9.5H13.4902C13.395 6.97803 12.589 5.03804 11.7363 3.73633Z" fill="#3617CE" />
</svg>