<svg preserveAspectRatio="none" width="100%" height="100%" overflow="visible" style="display: block;" viewBox="0 0 22.9008 22.9008" fill="none" xmlns="http://www.w3.org/2000/svg">
<g id="Icon container" opacity="0.3">
<path id="Subtract" d="M10.2839 2.81027C10.9711 2.27946 11.9297 2.27941 12.6169 2.81027L14.0348 3.905C14.3033 4.11232 14.6223 4.24464 14.9587 4.28781L16.735 4.51535C17.5964 4.62589 18.2749 5.30442 18.3854 6.16574L18.613 7.94211C18.6561 8.27847 18.7885 8.59754 18.9958 8.86594L20.0905 10.2839C20.6214 10.9711 20.6213 11.9297 20.0905 12.6169L18.9958 14.0349C18.7884 14.3033 18.6561 14.6223 18.613 14.9587L18.3854 16.7361C18.2747 17.5972 17.5962 18.275 16.735 18.3855L14.9587 18.614C14.6224 18.6571 14.3032 18.7886 14.0348 18.9958L12.6169 20.0915C11.9298 20.6223 10.971 20.6221 10.2839 20.0915L8.86589 18.9958C8.59749 18.7885 8.27844 18.6572 7.94206 18.614L6.16569 18.3855C5.30453 18.275 4.62602 17.5972 4.5153 16.7361L4.28777 14.9587C4.24459 14.6223 4.1123 14.3033 3.90495 14.0349L2.80925 12.6169C2.2787 11.9298 2.27853 10.971 2.80925 10.2839L3.90495 8.86594C4.11216 8.59758 4.24461 8.2784 4.28777 7.94211L4.5153 6.16574C4.62585 5.30443 5.30438 4.62589 6.16569 4.51535L7.94206 4.28781C8.27852 4.24463 8.59745 4.11238 8.86589 3.905L10.2839 2.81027ZM14.819 8.08176C14.5395 7.80258 14.0857 7.80238 13.8063 8.08176L8.08171 13.8064C7.80236 14.0857 7.80254 14.5396 8.08171 14.8191C8.36113 15.0983 8.814 15.0983 9.09343 14.8191L14.819 9.09348C15.0982 8.81405 15.0982 8.36119 14.819 8.08176ZM13.8366 12.8816C13.3099 12.8818 12.8827 13.309 12.8825 13.8357C12.8825 14.3625 13.3098 14.7895 13.8366 14.7898C14.3636 14.7898 14.7917 14.3627 14.7917 13.8357C14.7915 13.3088 14.3635 12.8816 13.8366 12.8816ZM9.06511 8.11105C8.53831 8.11128 8.11101 8.53831 8.11101 9.06516C8.11107 9.59195 8.53835 10.019 9.06511 10.0193C9.59206 10.0193 10.0201 9.59209 10.0202 9.06516C10.0202 8.53817 9.5921 8.11105 9.06511 8.11105Z" fill="var(--fill-0, #101010)"/>
</g>
</svg>
